<?xml version="1.0" encoding="utf-8"?>
<!-- Generator: Adobe Illustrator 23.0.2, SVG Export Plug-In . SVG Version: 6.00 Build 0)  -->
<svg version="1.1" id="Layer_1" xmlns="http://www.w3.org/2000/svg" xmlns:xlink="http://www.w3.org/1999/xlink" x="0px" y="0px"
	 viewBox="0 0 60 120" style="enable-background:new 0 0 60 120;" xml:space="preserve">
<style type="text/css">
	.st0{fill:url(#SVGID_1_);}
	.st1{fill:#FFFFFF;}
</style>
<linearGradient id="SVGID_1_" gradientUnits="userSpaceOnUse" x1="5.3274" y1="54.0782" x2="56.7418" y2="54.0782">
	<stop  offset="0.3352" style="stop-color:#FF56F6"/>
	<stop  offset="0.8615" style="stop-color:#47A1E4"/>
</linearGradient>
<path class="st0" d="M13.07,52.52h-1.69v-0.63H6.99v1.35h4.48c0.22,0,0.42,0.04,0.61,0.12c0.19,0.08,0.36,0.2,0.51,0.34
	c0.15,0.14,0.26,0.31,0.34,0.51c0.08,0.19,0.12,0.4,0.12,0.62v1.53c0,0.22-0.04,0.43-0.12,0.62c-0.08,0.19-0.2,0.36-0.34,0.51
	c-0.15,0.14-0.32,0.26-0.51,0.34c-0.19,0.08-0.4,0.12-0.61,0.12H6.92c-0.22,0-0.43-0.04-0.62-0.12c-0.19-0.08-0.36-0.2-0.51-0.34
	c-0.14-0.14-0.26-0.31-0.34-0.51c-0.08-0.19-0.12-0.4-0.12-0.62v-0.72h1.67v0.63h4.39v-1.35H6.92c-0.22,0-0.43-0.04-0.62-0.12
	c-0.19-0.08-0.36-0.2-0.51-0.34c-0.14-0.14-0.26-0.31-0.34-0.51c-0.08-0.19-0.12-0.4-0.12-0.62V51.8c0-0.22,0.04-0.43,0.12-0.62
	c0.08-0.19,0.2-0.36,0.34-0.51c0.14-0.14,0.31-0.26,0.51-0.34c0.19-0.08,0.4-0.12,0.62-0.12h4.56c0.22,0,0.42,0.04,0.61,0.12
	c0.19,0.08,0.36,0.2,0.51,0.34c0.15,0.14,0.26,0.31,0.34,0.51c0.08,0.19,0.12,0.4,0.12,0.62V52.52z M20.38,50.21
	c0.22,0,0.43,0.04,0.62,0.12c0.19,0.08,0.36,0.2,0.51,0.34c0.14,0.14,0.26,0.31,0.34,0.51c0.09,0.19,0.13,0.4,0.13,0.62v6.15H20.3
	v-2.49h-4.39v2.49h-1.67V51.8c0-0.22,0.04-0.43,0.12-0.62c0.08-0.19,0.2-0.36,0.34-0.51c0.14-0.14,0.31-0.26,0.51-0.34
	c0.19-0.08,0.4-0.12,0.62-0.12H20.38z M20.3,53.78v-1.89h-4.39v1.89H20.3z M24.32,56.27h4.39v-6.07h1.69v6.15
	c0,0.22-0.04,0.43-0.12,0.62c-0.08,0.19-0.2,0.36-0.34,0.51c-0.15,0.14-0.32,0.26-0.51,0.34c-0.19,0.08-0.4,0.12-0.61,0.12h-4.56
	c-0.22,0-0.43-0.04-0.62-0.12c-0.19-0.08-0.36-0.2-0.51-0.34c-0.14-0.14-0.26-0.31-0.34-0.51c-0.08-0.19-0.12-0.4-0.12-0.62v-1h1.67
	V56.27z M32.71,56.27h4.39v-6.07h1.69v6.15c0,0.22-0.04,0.43-0.12,0.62c-0.08,0.19-0.2,0.36-0.34,0.51
	c-0.15,0.14-0.32,0.26-0.51,0.34c-0.19,0.08-0.4,0.12-0.61,0.12h-4.56c-0.22,0-0.43-0.04-0.62-0.12c-0.19-0.08-0.36-0.2-0.51-0.34
	c-0.14-0.14-0.26-0.31-0.34-0.51c-0.08-0.19-0.12-0.4-0.12-0.62v-1h1.67V56.27z M46.15,50.21c0.22,0,0.43,0.04,0.62,0.12
	c0.19,0.08,0.36,0.2,0.51,0.34c0.14,0.14,0.26,0.31,0.34,0.51c0.09,0.19,0.13,0.4,0.13,0.62v6.15h-1.69v-2.49h-4.39v2.49h-1.67V51.8
	c0-0.22,0.04-0.43,0.12-0.62c0.08-0.19,0.2-0.36,0.34-0.51c0.14-0.14,0.31-0.26,0.51-0.34c0.19-0.08,0.4-0.12,0.62-0.12H46.15z
	 M46.06,53.78v-1.89h-4.39v1.89H46.06z M55.14,50.21c0.22,0,0.43,0.04,0.62,0.12c0.19,0.08,0.36,0.2,0.51,0.34
	c0.14,0.14,0.26,0.31,0.34,0.51c0.09,0.19,0.13,0.4,0.13,0.62v4.56c0,0.22-0.04,0.43-0.13,0.62c-0.09,0.19-0.2,0.36-0.34,0.51
	c-0.14,0.14-0.31,0.26-0.51,0.34c-0.19,0.08-0.4,0.12-0.62,0.12H49v-7.74H55.14z M50.67,56.27h4.39v-4.39h-4.39V56.27z"/>
<g>
	<g>
		<path class="st1" d="M12,59.82h1.67v7.46h-1.62v-5c-0.42,0.5-0.85,1.01-1.29,1.54c-0.44,0.53-0.87,1.04-1.28,1.53L6.9,62.29v4.99
			H5.3v-7.46h1.66l2.53,3.02L12,59.82z"/>
		<path class="st1" d="M16.5,65.66h4.23v-5.84h1.63v5.93c0,0.21-0.04,0.41-0.12,0.6c-0.08,0.19-0.19,0.35-0.33,0.49
			c-0.14,0.14-0.31,0.25-0.49,0.33c-0.19,0.08-0.38,0.12-0.59,0.12h-4.39c-0.21,0-0.41-0.04-0.6-0.12
			c-0.19-0.08-0.35-0.19-0.49-0.33c-0.14-0.14-0.25-0.3-0.33-0.49c-0.08-0.19-0.12-0.39-0.12-0.6v-5.93h1.61V65.66z"/>
		<path class="st1" d="M30.95,62.06h-1.63v-0.62H25.1v4.23h4.23v-1.12h-1.62v-1.62h3.24v2.82c0,0.21-0.04,0.41-0.12,0.6
			c-0.08,0.19-0.19,0.35-0.33,0.49c-0.14,0.14-0.3,0.25-0.49,0.33c-0.19,0.08-0.39,0.12-0.6,0.12h-4.38c-0.21,0-0.41-0.04-0.6-0.12
			c-0.19-0.08-0.35-0.19-0.49-0.33c-0.14-0.14-0.25-0.3-0.33-0.49c-0.08-0.19-0.12-0.39-0.12-0.6v-4.39c0-0.21,0.04-0.41,0.12-0.6
			c0.08-0.19,0.19-0.35,0.33-0.49c0.14-0.14,0.3-0.25,0.49-0.33c0.19-0.08,0.39-0.12,0.6-0.12h4.38c0.21,0,0.41,0.04,0.6,0.12
			c0.19,0.08,0.35,0.19,0.49,0.33c0.14,0.14,0.25,0.3,0.33,0.49c0.08,0.19,0.12,0.39,0.12,0.6V62.06z"/>
		<path class="st1" d="M38.03,59.82c0.21,0,0.41,0.04,0.6,0.12c0.19,0.08,0.35,0.19,0.49,0.33c0.14,0.14,0.25,0.3,0.33,0.49
			c0.08,0.19,0.12,0.39,0.12,0.6v4.39c0,0.21-0.04,0.41-0.12,0.6c-0.08,0.19-0.19,0.35-0.33,0.49c-0.14,0.14-0.3,0.25-0.49,0.33
			c-0.19,0.08-0.39,0.12-0.6,0.12h-5.92v-7.46H38.03z M33.72,65.66h4.23v-4.23h-4.23V65.66z"/>
		<path class="st1" d="M48.36,59.82v7.46h-1.61v-2.92h-4.4v2.92h-1.61v-7.46h1.61v2.92h4.4v-2.92H48.36z"/>
		<path class="st1" d="M55.46,59.82c0.21,0,0.4,0.04,0.59,0.12c0.19,0.08,0.35,0.19,0.49,0.33c0.14,0.14,0.25,0.3,0.33,0.49
			c0.08,0.19,0.12,0.39,0.12,0.6v4.39c0,0.21-0.04,0.41-0.12,0.6c-0.08,0.19-0.19,0.35-0.33,0.49c-0.14,0.14-0.31,0.25-0.49,0.33
			c-0.19,0.08-0.38,0.12-0.59,0.12h-4.39c-0.21,0-0.41-0.04-0.6-0.12c-0.19-0.08-0.35-0.19-0.49-0.33c-0.14-0.14-0.25-0.3-0.33-0.49
			c-0.08-0.19-0.12-0.39-0.12-0.6v-4.39c0-0.21,0.04-0.41,0.12-0.6c0.08-0.19,0.19-0.35,0.33-0.49c0.14-0.14,0.3-0.25,0.49-0.33
			c0.19-0.08,0.39-0.12,0.6-0.12H55.46z M51.13,65.66h4.23v-4.23h-4.23V65.66z"/>
	</g>
</g>
</svg>
